<svg width="34" height="29" viewBox="0 0 34 29" fill="none" xmlns="http://www.w3.org/2000/svg">
<path d="M26.5458 10.875L20.9589 0H18.1622L23.7491 10.875H26.5458ZM15.372 0H12.5753L6.98848 10.875H9.78519L15.372 0ZM2.7967 26.5814C2.7967 27.9125 4.04769 29 5.59341 29H27.9474C29.4866 29 30.7441 27.9182 30.7441 26.5814L32.1392 15.7064H1.39508L2.7967 26.5814ZM23.7556 18.125H26.5523L25.1507 26.5814H22.354L23.7556 18.125ZM15.372 18.125H18.1688V26.5814H15.372V18.125ZM9.77864 18.125L11.1737 26.5814H8.38356L6.98848 18.125H9.77864ZM32.1392 12.0814H1.39508C0.622217 12.0814 0 12.6252 0 13.2936V14.5H33.5342V13.2936C33.5342 12.6252 32.912 12.0814 32.1392 12.0814Z" fill="#FF71CE"/>
</svg>
