<svg width="21" height="19" viewBox="0 0 21 19" fill="none" xmlns="http://www.w3.org/2000/svg">
<g clip-path="url(#clip0)">
<path d="M10.1719 0.759766C4.55409 0.759766 0 4.88013 0 9.96289C0 15.0456 4.55409 19.166 10.1719 19.166C15.7897 19.166 20.3438 15.0456 20.3438 9.96289C20.3438 4.88013 15.7897 0.759766 10.1719 0.759766ZM10.1719 17.3848C5.63834 17.3848 1.96875 14.0653 1.96875 9.96289C1.96875 5.86115 5.63764 2.54102 10.1719 2.54102C14.7054 2.54102 18.375 5.86049 18.375 9.96289C18.375 14.0647 14.7061 17.3848 10.1719 17.3848ZM14.5749 13.6343C14.1806 13.9947 12.7075 15.1705 10.3067 15.1705C6.92573 15.1705 4.54461 12.8911 4.54461 9.91706C4.54461 6.97978 7.01683 4.74398 10.277 4.74398C12.5547 4.74398 13.9167 5.73183 14.2799 6.0346C14.3652 6.10562 14.42 6.20168 14.4346 6.30575C14.4491 6.40983 14.4224 6.5152 14.3593 6.60319L13.6146 7.64645C13.4571 7.86725 13.1239 7.91668 12.8969 7.75484C12.5444 7.50339 11.592 6.91847 10.3659 6.91847C8.38474 6.91847 7.17015 8.22955 7.17015 9.89027C7.17015 11.4336 8.27297 12.996 10.3807 12.996C11.7202 12.996 12.7122 12.2895 13.0765 11.9857C13.2927 11.8055 13.6342 11.8358 13.8074 12.0502L14.6222 13.0585C14.6916 13.1437 14.7251 13.2487 14.7164 13.3543C14.7077 13.46 14.6576 13.5593 14.5749 13.6343Z" fill="white"/>
</g>
<defs>
<clipPath id="clip0">
<rect width="21" height="19" fill="white"/>
</clipPath>
</defs>
</svg>
