<svg width="37" height="30" viewBox="0 0 37 30" fill="none" xmlns="http://www.w3.org/2000/svg">
<g clip-path="url(#clip0)">
<path d="M5.83564 18.2142V21.0713C5.8494 23.0799 6.99156 22.7678 7.83786 22.1649L12.7161 18.507V20.357C12.7161 22.0928 13.1977 22.4999 15.2963 22.4999H23.0368C23.0368 22.4999 27.5168 26.8749 27.5521 26.8456C28.1972 27.4999 29.9439 27.277 29.9173 26.0713V22.4999H32.4974C34.6046 22.4999 35.0776 22.0649 35.0776 20.357V9.64275C35.0776 7.92847 34.5702 7.4999 32.4974 7.4999H23.8969V6.07132C23.8969 4.30704 23.5012 3.92847 21.3167 3.92847H3.25547C1.22573 3.92847 0.675293 4.29275 0.675293 6.07132V15.357C0.675293 17.0992 1.14832 18.2142 3.25547 18.2142H5.83564ZM27.3371 20.357V23.7292L23.8969 20.357H16.1563C15.5113 20.357 15.2963 20.1642 15.2963 19.6428V10.357C15.2963 9.87847 15.5629 9.64275 16.1563 9.64275H31.6374C32.23 9.64275 32.4974 9.90704 32.4974 10.3142V19.6428C32.4974 20.1578 32.1887 20.357 31.6374 20.357H27.3371Z" fill="#899CEC"/>
</g>
<defs>
<clipPath id="clip0">
<rect width="36.1224" height="30" fill="white" transform="translate(0.244629)"/>
</clipPath>
</defs>
</svg>
