<svg width="194" height="47" viewBox="0 0 194 47" fill="none" xmlns="http://www.w3.org/2000/svg">
<path d="M19.5721 46.24C15.7641 46.24 12.4521 45.552 9.63613 44.176C6.82013 42.768 4.66013 40.784 3.15613 38.224C1.65213 35.664 0.900125 32.688 0.900125 29.296C0.900125 24.592 1.78013 20.416 3.54013 16.768C5.33213 13.12 7.74813 10.304 10.7881 8.32C13.8281 6.304 17.2041 5.296 20.9161 5.296C24.3721 5.296 26.9961 6.192 28.7881 7.984C30.5801 9.744 31.4761 12.08 31.4761 14.992C31.4761 16.944 31.1241 18.512 30.4201 19.696C29.7481 20.88 28.7721 21.472 27.4921 21.472C26.5961 21.472 25.8921 21.264 25.3801 20.848C24.8681 20.432 24.6121 19.824 24.6121 19.024C24.6121 18.736 24.6761 18.208 24.8041 17.44C24.9961 16.48 25.0921 15.712 25.0921 15.136C25.0921 12.224 23.5401 10.768 20.4361 10.768C18.3241 10.768 16.3081 11.456 14.3881 12.832C12.4681 14.208 10.9161 16.24 9.73213 18.928C8.54813 21.584 7.95613 24.752 7.95613 28.432C7.95613 32.272 9.02813 35.248 11.1721 37.36C13.3161 39.44 16.4841 40.48 20.6761 40.48C22.7561 40.48 24.8521 40.224 26.9641 39.712C29.1081 39.168 31.4761 38.352 34.0681 37.264C34.5481 37.072 34.9481 36.976 35.2681 36.976C35.7801 36.976 36.1641 37.168 36.4201 37.552C36.6761 37.936 36.8041 38.432 36.8041 39.04C36.8041 40.992 35.7481 42.432 33.6361 43.36C31.3641 44.352 28.9961 45.088 26.5321 45.568C24.1001 46.016 21.7801 46.24 19.5721 46.24ZM57.0496 31.264C57.4656 31.264 57.7856 31.472 58.0096 31.888C58.2336 32.304 58.3456 32.832 58.3456 33.472C58.3456 35.008 57.8816 35.92 56.9536 36.208C55.0336 36.88 52.9216 37.264 50.6176 37.36C50.0096 40.048 48.8096 42.208 47.0176 43.84C45.2256 45.44 43.1936 46.24 40.9216 46.24C39.0016 46.24 37.3536 45.776 35.9776 44.848C34.6336 43.92 33.6096 42.688 32.9056 41.152C32.2016 39.616 31.8496 37.952 31.8496 36.16C31.8496 33.728 32.3136 31.568 33.2416 29.68C34.1696 27.76 35.4496 26.272 37.0816 25.216C38.7136 24.128 40.5216 23.584 42.5056 23.584C44.9376 23.584 46.8896 24.432 48.3616 26.128C49.8656 27.792 50.7456 29.856 51.0016 32.32C52.5056 32.224 54.2976 31.904 56.3776 31.36C56.6336 31.296 56.8576 31.264 57.0496 31.264ZM41.3056 41.152C42.3296 41.152 43.2096 40.736 43.9456 39.904C44.7136 39.072 45.2256 37.872 45.4816 36.304C44.4896 35.632 43.7216 34.752 43.1776 33.664C42.6656 32.576 42.4096 31.424 42.4096 30.208C42.4096 29.696 42.4576 29.184 42.5536 28.672H42.3136C41.0336 28.672 39.9616 29.296 39.0976 30.544C38.2656 31.76 37.8496 33.488 37.8496 35.728C37.8496 37.488 38.1856 38.832 38.8576 39.76C39.5616 40.688 40.3776 41.152 41.3056 41.152ZM78.7059 31.264C79.1219 31.264 79.4419 31.472 79.6659 31.888C79.8899 32.304 80.0019 32.832 80.0019 33.472C80.0019 35.008 79.5379 35.92 78.6099 36.208C76.6899 36.88 74.5779 37.264 72.2739 37.36C71.6659 40.048 70.4659 42.208 68.6739 43.84C66.8819 45.44 64.8499 46.24 62.5779 46.24C60.6579 46.24 59.0099 45.776 57.6339 44.848C56.2899 43.92 55.2659 42.688 54.5619 41.152C53.8579 39.616 53.5059 37.952 53.5059 36.16C53.5059 33.728 53.9699 31.568 54.8979 29.68C55.8259 27.76 57.1059 26.272 58.7379 25.216C60.3699 24.128 62.1779 23.584 64.1619 23.584C66.5939 23.584 68.5459 24.432 70.0179 26.128C71.5219 27.792 72.4019 29.856 72.6579 32.32C74.1619 32.224 75.9539 31.904 78.0339 31.36C78.2899 31.296 78.5139 31.264 78.7059 31.264ZM62.9619 41.152C63.9859 41.152 64.8659 40.736 65.6019 39.904C66.3699 39.072 66.8819 37.872 67.1379 36.304C66.1459 35.632 65.3779 34.752 64.8339 33.664C64.3219 32.576 64.0659 31.424 64.0659 30.208C64.0659 29.696 64.1139 29.184 64.2099 28.672H63.9699C62.6899 28.672 61.6179 29.296 60.7539 30.544C59.9219 31.76 59.5059 33.488 59.5059 35.728C59.5059 37.488 59.8419 38.832 60.5139 39.76C61.2179 40.688 62.0339 41.152 62.9619 41.152ZM89.7541 39.232C90.1061 38.912 90.4581 38.752 90.8101 38.752C91.1941 38.752 91.4981 38.976 91.7221 39.424C91.9781 39.84 92.1061 40.352 92.1061 40.96C92.1061 42.304 91.6261 43.376 90.6661 44.176C89.0021 45.552 87.1141 46.24 85.0021 46.24C81.9621 46.24 79.7381 44.976 78.3301 42.448C76.9221 39.888 76.2181 36.56 76.2181 32.464C76.2181 28.56 76.7141 24.112 77.7061 19.12C78.7301 14.128 80.2181 9.84 82.1701 6.256C84.1541 2.672 86.5061 0.879997 89.2261 0.879997C90.7621 0.879997 91.9621 1.6 92.8261 3.04C93.7221 4.448 94.1701 6.48 94.1701 9.136C94.1701 12.944 93.1141 17.36 91.0021 22.384C88.9221 27.408 86.0741 32.368 82.4581 37.264C82.6821 38.576 83.0821 39.52 83.6581 40.096C84.2341 40.672 85.0181 40.96 86.0101 40.96C86.5541 40.96 87.1621 40.8 87.8341 40.48C88.5381 40.16 89.1781 39.744 89.7541 39.232ZM88.1701 5.632C87.4341 5.632 86.6021 6.96 85.6741 9.616C84.7461 12.272 83.9301 15.568 83.2261 19.504C82.5221 23.44 82.1381 27.216 82.0741 30.832C84.3461 27.088 86.1541 23.344 87.4981 19.6C88.8421 15.824 89.5141 12.384 89.5141 9.28C89.5141 6.848 89.0661 5.632 88.1701 5.632Z" fill="#FF71CE"/>
<path d="M125.697 46.24C121.889 46.24 118.577 45.552 115.761 44.176C112.945 42.768 110.785 40.784 109.281 38.224C107.777 35.664 107.025 32.688 107.025 29.296C107.025 24.592 107.905 20.416 109.665 16.768C111.457 13.12 113.873 10.304 116.913 8.32C119.953 6.304 123.329 5.296 127.041 5.296C130.497 5.296 133.121 6.192 134.913 7.984C136.705 9.744 137.601 12.08 137.601 14.992C137.601 16.944 137.249 18.512 136.545 19.696C135.873 20.88 134.897 21.472 133.617 21.472C132.721 21.472 132.017 21.264 131.505 20.848C130.993 20.432 130.737 19.824 130.737 19.024C130.737 18.736 130.801 18.208 130.929 17.44C131.121 16.48 131.217 15.712 131.217 15.136C131.217 12.224 129.665 10.768 126.561 10.768C124.449 10.768 122.433 11.456 120.513 12.832C118.593 14.208 117.041 16.24 115.857 18.928C114.673 21.584 114.081 24.752 114.081 28.432C114.081 32.272 115.153 35.248 117.297 37.36C119.441 39.44 122.609 40.48 126.801 40.48C128.881 40.48 130.977 40.224 133.089 39.712C135.233 39.168 137.601 38.352 140.193 37.264C140.673 37.072 141.073 36.976 141.393 36.976C141.905 36.976 142.289 37.168 142.545 37.552C142.801 37.936 142.929 38.432 142.929 39.04C142.929 40.992 141.873 42.432 139.761 43.36C137.489 44.352 135.121 45.088 132.657 45.568C130.225 46.016 127.905 46.24 125.697 46.24ZM165.803 35.296C166.219 35.296 166.539 35.488 166.763 35.872C167.019 36.256 167.147 36.784 167.147 37.456C167.147 38.736 166.843 39.728 166.235 40.432C164.763 42.128 163.243 43.52 161.675 44.608C160.139 45.696 158.379 46.24 156.395 46.24C154.763 46.24 153.531 45.776 152.699 44.848C151.867 43.888 151.451 42.512 151.451 40.72C151.451 39.824 151.675 38.224 152.123 35.92C152.539 33.904 152.747 32.512 152.747 31.744C152.747 31.232 152.571 30.976 152.219 30.976C151.803 30.976 151.211 31.52 150.443 32.608C149.675 33.664 148.907 35.072 148.139 36.832C147.371 38.592 146.747 40.448 146.267 42.4C145.659 44.96 144.155 46.24 141.755 46.24C140.795 46.24 140.155 45.904 139.835 45.232C139.547 44.528 139.403 43.28 139.403 41.488C139.403 40.464 139.419 39.648 139.451 39.04L139.499 35.2C139.499 30.272 139.995 25.136 140.987 19.792C142.011 14.448 143.499 9.968 145.451 6.352C147.435 2.704 149.803 0.879997 152.555 0.879997C154.027 0.879997 155.211 1.52 156.107 2.8C157.035 4.048 157.499 5.68 157.499 7.696C157.499 10.928 156.555 14.288 154.667 17.776C152.779 21.232 149.707 25.28 145.451 29.92C145.355 31.584 145.307 33.296 145.307 35.056C146.363 32.336 147.531 30.128 148.811 28.432C150.123 26.704 151.403 25.472 152.651 24.736C153.931 24 155.099 23.632 156.155 23.632C158.235 23.632 159.275 24.672 159.275 26.752C159.275 28 158.923 30.256 158.219 33.52C157.611 36.304 157.307 38.144 157.307 39.04C157.307 40.32 157.771 40.96 158.699 40.96C159.339 40.96 160.091 40.576 160.955 39.808C161.851 39.008 163.035 37.728 164.507 35.968C164.891 35.52 165.323 35.296 165.803 35.296ZM151.547 5.632C150.971 5.632 150.331 6.464 149.627 8.128C148.923 9.76 148.235 11.984 147.563 14.8C146.923 17.584 146.395 20.624 145.979 23.92C147.963 21.584 149.595 19.04 150.875 16.288C152.187 13.536 152.843 11.04 152.843 8.8C152.843 7.776 152.731 6.992 152.507 6.448C152.283 5.904 151.963 5.632 151.547 5.632ZM169.545 20.464C168.201 20.464 167.193 20.16 166.521 19.552C165.849 18.912 165.513 18.032 165.513 16.912C165.513 15.792 165.945 14.864 166.809 14.128C167.705 13.36 168.809 12.976 170.121 12.976C171.305 12.976 172.265 13.264 173.001 13.84C173.737 14.416 174.105 15.232 174.105 16.288C174.105 17.568 173.689 18.592 172.857 19.36C172.025 20.096 170.921 20.464 169.545 20.464ZM169.161 46.24C167.081 46.24 165.561 45.504 164.601 44.032C163.673 42.56 163.209 40.608 163.209 38.176C163.209 36.736 163.385 34.896 163.737 32.656C164.121 30.384 164.601 28.272 165.177 26.32C165.465 25.296 165.849 24.592 166.329 24.208C166.809 23.824 167.577 23.632 168.633 23.632C170.265 23.632 171.081 24.176 171.081 25.264C171.081 26.064 170.777 27.92 170.169 30.832C169.401 34.352 169.017 36.736 169.017 37.984C169.017 38.944 169.145 39.68 169.401 40.192C169.657 40.704 170.089 40.96 170.697 40.96C171.273 40.96 171.993 40.56 172.857 39.76C173.721 38.96 174.873 37.696 176.313 35.968C176.697 35.52 177.129 35.296 177.609 35.296C178.025 35.296 178.345 35.488 178.569 35.872C178.825 36.256 178.953 36.784 178.953 37.456C178.953 38.736 178.649 39.728 178.041 40.432C174.873 44.304 171.913 46.24 169.161 46.24ZM183.998 46.24C180.958 46.24 178.574 45.36 176.846 43.6C175.15 41.808 174.302 39.456 174.302 36.544C174.302 33.952 174.814 31.68 175.838 29.728C176.862 27.776 178.19 26.272 179.822 25.216C181.454 24.16 183.166 23.632 184.958 23.632C186.718 23.632 188.078 24.16 189.038 25.216C190.03 26.24 190.526 27.568 190.526 29.2C190.526 30.544 190.222 31.68 189.614 32.608C189.038 33.536 188.27 34 187.31 34C186.702 34 186.206 33.856 185.822 33.568C185.47 33.28 185.294 32.88 185.294 32.368C185.294 32.144 185.326 31.888 185.39 31.6C185.454 31.312 185.502 31.104 185.534 30.976C185.694 30.496 185.774 30.048 185.774 29.632C185.774 29.216 185.662 28.896 185.438 28.672C185.246 28.448 184.958 28.336 184.574 28.336C183.838 28.336 183.15 28.672 182.51 29.344C181.87 29.984 181.358 30.864 180.974 31.984C180.59 33.104 180.398 34.336 180.398 35.68C180.398 37.504 180.766 38.896 181.502 39.856C182.27 40.784 183.342 41.248 184.718 41.248C185.806 41.248 186.798 40.928 187.694 40.288C188.622 39.648 189.534 38.704 190.43 37.456C190.814 36.976 191.246 36.736 191.726 36.736C192.142 36.736 192.462 36.928 192.686 37.312C192.942 37.696 193.07 38.224 193.07 38.896C193.07 40.048 192.798 41.04 192.254 41.872C191.39 43.216 190.254 44.288 188.846 45.088C187.438 45.856 185.822 46.24 183.998 46.24Z" fill="#899CEC"/>
</svg>
