<svg width="36" height="32" viewBox="0 0 36 32" fill="none" xmlns="http://www.w3.org/2000/svg">
<path fill-rule="evenodd" clip-rule="evenodd" d="M23.6711 12.0001C23.6711 13.4146 23.0476 14.7711 21.9378 15.7713C20.828 16.7715 19.3228 17.3334 17.7533 17.3334C16.1838 17.3334 14.6785 16.7715 13.5687 15.7713C12.4589 14.7711 11.8354 13.4146 11.8354 12.0001C11.8354 10.5856 12.4589 9.22904 13.5687 8.22885C14.6785 7.22865 16.1838 6.66675 17.7533 6.66675C19.3228 6.66675 20.828 7.22865 21.9378 8.22885C23.0476 9.22904 23.6711 10.5856 23.6711 12.0001ZM20.7122 12.0001C20.7122 12.7073 20.4004 13.3856 19.8455 13.8857C19.2906 14.3858 18.538 14.6667 17.7533 14.6667C16.9685 14.6667 16.2159 14.3858 15.661 13.8857C15.1061 13.3856 14.7944 12.7073 14.7944 12.0001C14.7944 11.2928 15.1061 10.6146 15.661 10.1145C16.2159 9.61437 16.9685 9.33342 17.7533 9.33342C18.538 9.33342 19.2906 9.61437 19.8455 10.1145C20.4004 10.6146 20.7122 11.2928 20.7122 12.0001Z" fill="#FF71CE"/>
<path fill-rule="evenodd" clip-rule="evenodd" d="M17.7535 1.33337C8.76579 1.33337 1.47949 7.90004 1.47949 16C1.47949 24.1 8.76579 30.6667 17.7535 30.6667C26.7411 30.6667 34.0274 24.1 34.0274 16C34.0274 7.90004 26.7411 1.33337 17.7535 1.33337ZM4.4384 16C4.4384 18.7867 5.49325 21.352 7.26119 23.3894C8.50279 21.9199 10.1045 20.729 11.9413 19.9098C13.7781 19.0905 15.8002 18.6651 17.8496 18.6667C19.8725 18.665 21.8692 19.0794 23.6874 19.8784C25.5057 20.6774 27.0976 21.8399 28.3419 23.2774C29.6238 21.7622 30.4869 19.9937 30.8598 18.1182C31.2327 16.2427 31.1047 14.3141 30.4864 12.492C29.868 10.67 28.7772 9.00677 27.304 7.64009C25.8309 6.27341 24.0178 5.24252 22.0149 4.63272C20.0119 4.02292 17.8766 3.85174 15.7856 4.13334C13.6946 4.41494 11.7081 5.14123 9.99044 6.25211C8.27276 7.36299 6.87329 8.82653 5.90783 10.5216C4.94237 12.2167 4.43866 14.0947 4.4384 16ZM17.7535 28C14.6968 28.0042 11.7325 27.0565 9.36201 25.3174C10.3162 24.0864 11.5861 23.0813 13.0639 22.3876C14.5416 21.694 16.1835 21.3323 17.8496 21.3334C19.495 21.3322 21.117 21.6848 22.5808 22.3619C24.0446 23.0391 25.3081 24.0212 26.2662 25.2267C23.8774 27.0223 20.8641 28.004 17.7535 28Z" fill="#FF71CE"/>
</svg>
