<svg width="43" height="40" viewBox="0 0 43 40" fill="none" xmlns="http://www.w3.org/2000/svg">
<path d="M38.435 33.4375L28.1569 23.7422C29.8133 21.5954 30.7043 19.0081 30.7016 16.3531C30.7016 9.40391 24.7069 3.75 17.3388 3.75C9.97076 3.75 3.97607 9.40391 3.97607 16.3531C3.97607 23.3023 9.97076 28.9563 17.3388 28.9563C20.1539 28.9588 22.8971 28.1184 25.1733 26.5563L35.453 36.25L38.435 33.4375ZM17.3388 24.9758C15.5304 24.9759 13.7626 24.4703 12.2588 23.5228C10.7551 22.5753 9.58308 21.2285 8.89095 19.6528C8.19882 18.077 8.01768 16.343 8.37045 14.6702C8.72321 12.9973 9.59404 11.4607 10.8728 10.2547C12.1515 9.0486 13.7808 8.22728 15.5545 7.89456C17.3281 7.56185 19.1666 7.73269 20.8373 8.38548C22.5081 9.03826 23.9361 10.1437 24.9407 11.5619C25.9453 12.9801 26.4814 14.6475 26.4812 16.3531C26.4784 18.6392 25.5142 20.8308 23.8003 22.4473C22.0864 24.0638 19.7627 24.9731 17.3388 24.9758Z" fill="#FF71CE"/>
</svg>
